<?xml version="1.0" encoding="UTF-8"?>
<svg xmlns="http://www.w3.org/2000/svg" width="25.5" height="19.5" viewBox="0 0 25.5 19.5">
  <g id="Group_29_Copy_15" data-name="Group 29 Copy 15" transform="translate(0.75 0.75)">
    <g id="Group_29_Copy_14" data-name="Group 29 Copy 14">
      <g id="Group_29_Copy_13" data-name="Group 29 Copy 13">
        <g id="Group_29_Copy_5" data-name="Group 29 Copy 5">
          <g id="Group_29_Copy" data-name="Group 29 Copy">
            <path id="Stroke_1" data-name="Stroke 1" d="M0,18a9.857,9.857,0,0,1,6-1.932A9.856,9.856,0,0,1,12,18V1.932A9.856,9.856,0,0,0,6,0,9.857,9.857,0,0,0,0,1.932Z" transform="translate(12)" fill="none" stroke="#ffa488" stroke-linecap="round" stroke-linejoin="round" stroke-miterlimit="10" stroke-width="1.5"></path>
            <path id="Stroke_3" data-name="Stroke 3" d="M12,18a9.857,9.857,0,0,0-6-1.932A9.856,9.856,0,0,0,0,18V1.932A9.856,9.856,0,0,1,6,0a9.857,9.857,0,0,1,6,1.932Z" fill="none" stroke="#ffa488" stroke-linecap="round" stroke-linejoin="round" stroke-miterlimit="10" stroke-width="1.5"></path>
            <path id="Stroke_5_Copy" data-name="Stroke 5 Copy" d="M0,1A5.173,5.173,0,0,1,3.007,0,5.17,5.17,0,0,1,6,.989" transform="translate(15 4)" fill="none" stroke="#ffa488" stroke-linecap="round" stroke-linejoin="round" stroke-miterlimit="10" stroke-width="1.5"></path>
            <path id="Stroke_5_Copy_2" data-name="Stroke 5 Copy 2" d="M0,1A5.173,5.173,0,0,1,3.007,0,5.17,5.17,0,0,1,6,.989" transform="translate(3 4)" fill="none" stroke="#ffa488" stroke-linecap="round" stroke-linejoin="round" stroke-miterlimit="10" stroke-width="1.5"></path>
            <path id="Stroke_7_Copy" data-name="Stroke 7 Copy" d="M0,1A5.173,5.173,0,0,1,3.007,0,5.169,5.169,0,0,1,6,.99" transform="translate(15 8)" fill="none" stroke="#ffa488" stroke-linecap="round" stroke-linejoin="round" stroke-miterlimit="10" stroke-width="1.5"></path>
            <path id="Stroke_7_Copy_2" data-name="Stroke 7 Copy 2" d="M0,1A5.173,5.173,0,0,1,3.007,0,5.169,5.169,0,0,1,6,.99" transform="translate(3 8)" fill="none" stroke="#ffa488" stroke-linecap="round" stroke-linejoin="round" stroke-miterlimit="10" stroke-width="1.5"></path>
            <path id="Stroke_13_Copy" data-name="Stroke 13 Copy" d="M0,1A5.173,5.173,0,0,1,3.007,0,5.169,5.169,0,0,1,6,.99" transform="translate(15 12)" fill="none" stroke="#ffa488" stroke-linecap="round" stroke-linejoin="round" stroke-miterlimit="10" stroke-width="1.5"></path>
            <path id="Stroke_13_Copy_2" data-name="Stroke 13 Copy 2" d="M0,1A5.173,5.173,0,0,1,3.007,0,5.169,5.169,0,0,1,6,.99" transform="translate(3 12)" fill="none" stroke="#ffa488" stroke-linecap="round" stroke-linejoin="round" stroke-miterlimit="10" stroke-width="1.5"></path>
          </g>
        </g>
      </g>
    </g>
  </g>
</svg>
