<?xml version="1.0" encoding="utf-8"?>
<!-- Generator: Adobe Illustrator 23.0.6, SVG Export Plug-In . SVG Version: 6.00 Build 0)  -->
<svg version="1.1" id="Layer_1" xmlns="http://www.w3.org/2000/svg" xmlns:xlink="http://www.w3.org/1999/xlink" x="0px" y="0px"
	 viewBox="0 0 415.6 189.5" style="enable-background:new 0 0 415.6 189.5;" xml:space="preserve">
<style type="text/css">
	.st0{fill:#010101;}
</style>
<g>
	<path class="st0" d="M187.7,183.2L187.7,183.2c-1.7,0.4-3.4,0.6-5.1,0.6c-3.2,0-7-4.2-11.1-12.5c15.7-31.1,11.5-94.4,11.3-97.1
		c0-0.5-0.3-1-0.7-1.4c-0.4-0.4-0.9-0.5-1.4-0.5c-1.1,0.1-1.9,1-1.9,2.1c0,0.6,4,61-9.5,92.1c-7.4-16.5-14.4-41-19.1-57.5
		c-2-7-3.7-13.1-5.1-17.2c-0.4-1.2-0.8-2.5-1.1-3.8l0.6-1.1c17.9-35.2,19.2-48,19.2-64.9c0-19.7-8.8-22.2-16.4-22.2
		c-10,0-14.5,7-14.5,22.5c0,9.3,0.5,41.5,6.8,65.2c-12.7,25.5-19.1,49.3-19.1,70.7c0,14.6,9.7,30,27.7,30c6.4,0,12-2.6,16.7-7.6
		c1.5-1.5,2.8-3.4,4.1-5.4c4.6,8.3,9,12.4,13.5,12.4c2,0,4.1-0.2,6-0.7c0.5-0.1,1-0.4,1.2-0.9c0.3-0.5,0.4-1,0.2-1.5
		C189.8,183.6,188.7,183,187.7,183.2z M162,178.1c-4,4.3-8.5,6.4-13.8,6.4c-15.4,0-23.7-13.4-23.7-26c0-19.7,5.6-41.5,16.8-65
		c1.3,4.1,3,10,5,16.9c6.2,21.6,13.3,45.9,20.6,60.9C165.4,173.9,163.8,176.3,162,178.1L162,178.1z M147.3,4
		c6.4,0,12.4,2.2,12.4,18.2c0,15.9-1.2,27.9-17.3,60.1c-5.2-22.7-5.6-51.4-5.6-59.7C136.8,6.2,141.8,4,147.3,4z"/>
	<polygon class="st0" points="210.8,189.5 247.6,189.5 247.6,113.8 294.8,113.8 294.8,80.6 247.6,80.6 247.6,43.1 302.3,43.1 
		302.3,10.6 210.8,10.6 	"/>
	<path class="st0" d="M50,111.1h16.3v29.3c0,10.8-3.8,18-14.2,18s-14.2-6.7-14.2-18V54.1c0-11.1,4.3-16.6,12.7-16.6
		c9.4,0,13,6,13,16.6v10.6h35.8V51c0-26-10.3-44.7-46.2-44.7h-5.8C12.3,6.3,0,26,0,53.6V145c0,25,12.7,44.5,37.8,44.5h1.7
		c20,0,29.1-13.7,32.2-19.5c2.2,6,5,14.4,5.8,17.1h23.8V81.3H50V111.1z"/>
	<path class="st0" d="M373.7,10.6h-58.4v178.9h40.2V120h18.2c27,0,41.9-12,41.9-40.2V50C415.6,20.9,401.2,10.6,373.7,10.6z
		 M375.7,73.8c0,12.7-3.5,16.6-13.9,16.6h-6.3V39h6.3c10.3,0,13.9,3.9,13.9,16.4V73.8z"/>
</g>
</svg>
