<svg xmlns="http://www.w3.org/2000/svg" xmlns:xlink="http://www.w3.org/1999/xlink" viewBox="0 0 246 151">
  <defs>
    <path id="a" d="M0 151h245.921V.29H0z"/>
  </defs>
  <g fill="none" fill-rule="evenodd">
    <path fill="#54235C" d="M52.668 54.471h22.819v8.101H61.848v9.359h11.779v8.279H61.848v18.9h-9.18z"/>
    <g transform="translate(0 -.29)">
      <path fill="#54235C" d="M85.417 84.46h5.4l-1.32-8.7c-.72-4.798-1.14-8.158-1.38-10.798-.24 2.64-.72 6.06-1.38 10.799l-1.32 8.7Zm6.54 7.5h-7.68l-1.14 7.44h-8.22l7.32-44.638h12.12l7.859 44.638h-9.119l-1.14-7.44ZM124.3 99.4h-4.32l-4.959-19.619c-1.26-6.06-1.98-9.96-2.52-13.56.18 4.38.18 8.52.18 14.76V99.4h-7.86V54.761h11.88l3.94 15.48c.9 4.74 1.32 7.62 1.74 10.439.42-2.819.95-5.639 1.85-10.439l2.89-15.48h12.58V99.4h-8.04V80.981c0-6.18.12-10.26.3-14.76-.66 3.54-1.38 7.38-2.58 13.32L124.3 99.4Z"/>
      <mask id="b" fill="#fff">
        <use xlink:href="#a"/>
      </mask>
      <path fill="#54235C" d="M144.534 99.4h9.54V54.761h-9.54zm23.728-44.639V90.82h10.5v8.58h-19.979V54.761zm16.074 27.78-10.46-27.779h9.54l6.02 16.859 5.96-16.859h8.999l-10.16 27.959V99.4h-9.899zM223.41 1.79c-3.08 0-5.929 1.235-5.929 10.199 0 4.938.252 20.589 3.198 32.775 8.99-17.79 9.646-24.352 9.646-32.954 0-8.806-3.324-10.02-6.916-10.02m-3.137 47.149c-6.186 12.842-9.32 24.78-9.32 35.522 0 9.217 6.672 14.189 12.951 14.189 2.878 0 5.433-1.175 7.594-3.494 1.011-1.084 1.914-2.385 2.722-3.857-3.762-7.687-7.39-19.743-11.045-32.578-1.066-3.744-1.987-6.98-2.703-9.164-.067-.204-.133-.411-.199-.618m3.631 51.21c-7.006 0-14.452-5.498-14.452-15.688 0-11.384 3.431-24.05 10.2-37.662-3.389-12.571-3.67-29.6-3.67-34.81 0-8.091 2.291-11.7 7.428-11.7 3.918 0 8.416 1.31 8.416 11.52 0 8.957-.687 15.744-10.22 34.445-.12.234-.238.468-.356.702.205.729.42 1.44.647 2.134.726 2.213 1.651 5.46 2.721 9.22 2.51 8.82 6.386 22.434 10.463 31.277 7.622-16.473 5.413-49.527 5.387-49.903a.749.749 0 0 1 .695-.801.762.762 0 0 1 .801.695c.111 1.587 2.361 35.32-6.053 51.733 2.118 4.214 4.27 6.98 6.294 6.98.945 0 1.885-.11 2.792-.326a.75.75 0 0 1 .35 1.459c-1.022.244-2.08.368-3.142.368-2.469 0-4.847-2.578-7.17-6.901-.738 1.228-1.55 2.334-2.439 3.288-2.457 2.635-5.38 3.97-8.692 3.97M62.087 49c-6.24 0-9.419-4.86-9.419-11.1V15.102c0-6.9 3.06-11.82 11.88-11.82h1.44c8.938 0 11.518 4.68 11.518 11.159v3.42h-8.939v-2.64c0-2.64-.9-4.14-3.24-4.14-2.1 0-3.18 1.38-3.18 4.14v21.54c0 2.82.96 4.5 3.54 4.5s3.54-1.8 3.54-4.5v-7.32h-4.08V22h12.78v26.4h-5.94c-.18-.66-.9-2.76-1.44-4.26-.78 1.44-3.06 4.86-8.04 4.86h-.42ZM99.455 3.762v8.1h-8.699v9.359h6.839V29.5h-6.839v10.68h9.059v8.22H81.576V3.762zm17.582 17.599c1.26 4.08 2.04 6.54 2.58 8.88-.18-2.88-.24-4.1-.24-9.859V3.762h7.98V48.4h-8.16l-6.02-19.279c-1.26-3.66-2.1-6.54-2.64-8.76.24 2.34.36 4.399.36 9.859V48.4h-8.04V3.762h9.18l5 17.599Zm23.669 19.299h1.641c2.64 0 3.54-1.32 3.54-4.38V15.462c0-3.061-.9-4.321-3.48-4.321h-1.7v29.52Zm-9.539-36.897h13.52c7.498 0 10.8 3.059 10.8 10.919V37.3c0 7.739-3.24 11.099-10.74 11.099h-13.58V3.763Zm45.87-.001v8.1h-8.699v9.359h7.84V29.5h-7.84v10.68h9.059v8.22h-18.239V3.762zM189.74 22h1.94c2.34 0 3.3-1.26 3.3-3.84v-3.84c0-2.698-.84-3.718-3.3-3.718h-1.94V22Zm0 26.4h-9.3V3.763h14.9c5.82 0 8.94 2.699 8.94 8.699v4.14c0 4.559-2.16 6.78-4.62 7.679 2.64 1.02 4.62 3.06 4.62 7.44V43.48c0 2.16.3 3.66.72 4.62v.3h-9.24c-.42-.66-.78-1.92-.78-4.5V33.34c0-2.82-.9-4.02-3.24-4.02h-2V48.4ZM63.081 125.681h1.584c2.584 0 3.464-.96 3.464-4.14v-4.62c0-3.12-.88-4.08-3.465-4.08h-1.583v12.84Zm0 7.38v17.34H53.063v-44.64h14.563c6.867 0 10.459 2.58 10.459 9.84v7.44c0 7.02-3.717 10.02-10.46 10.02h-4.544ZM91.043 124h2.086c2.457 0 3.465-1.26 3.465-3.84v-3.84c0-2.698-.881-3.718-3.465-3.718h-2.087V124Zm0 26.4h-9.767v-44.638h15.697c6.112 0 9.388 2.7 9.388 8.7v4.14c0 4.559-2.269 6.78-4.853 7.679 2.773 1.02 4.853 3.06 4.853 7.44v11.759c0 2.16.314 3.66.755 4.62v.3h-9.703c-.44-.66-.819-1.92-.819-4.5v-10.56c0-2.82-.944-4.02-3.401-4.02h-2.15v19.08Zm36.03-32.58c0-3.18-1.26-4.5-3.59-4.5-2.458 0-3.593 1.32-3.593 4.5v20.58c0 2.94 1.198 4.44 3.592 4.44s3.591-1.5 3.591-4.44v-20.58Zm10.08 20.58c0 7.98-4.095 12.6-12.852 12.6h-1.575c-9.01 0-12.916-4.74-12.916-12.6v-20.698c0-7.92 3.843-12.481 12.853-12.481h1.575c9.01 0 12.915 4.62 12.915 12.48V138.4Zm12.392-7.86v8.88c0 2.46.818 3.48 2.835 3.48h.126c2.016 0 2.709-1.14 2.709-3.48v-33.658h10.08v34.319c0 6.959-3.401 10.799-11.466 10.799h-2.646c-7.561 0-10.837-3.3-10.837-10.2v-10.14h9.199Zm39.518-24.779v8.101h-10.286v9.359h8.333v8.279h-8.333v10.68h10.664v8.22h-20.304v-44.639zm20.051 32.939v-7.08h9.577v7.62c0 6.24-3.15 11.76-12.097 11.76h-1.7c-9.01 0-12.539-4.8-12.539-12.3v-21.3c0-7.5 3.53-12.118 12.35-12.118h1.7c8.884 0 12.286 4.08 12.286 11.52v5.699h-9.577v-5.16c0-2.7-.818-4.26-3.402-4.26-2.457 0-3.276 1.44-3.276 4.26v21.299c0 2.82.82 4.32 3.276 4.32 2.52 0 3.402-1.62 3.402-4.26m18.794-24.838h-7.497v-8.101h24.76v8.101h-7.497V150.4h-9.766zM3.088 142.276l8.013 3.113v-6.347l-8.013 3.234Zm10.146-4.116v8.062l4.508 1.765v2.598l-17.423-7.01v-2.621l17.423-7.205v2.597l-4.508 1.814Zm4.9-13.94c0 5.146-2.843 8.111-8.455 8.111H8.626c-5.49 0-8.626-3.185-8.626-8.258 0-4.362 2.156-7.18 6.421-7.744v2.647c-2.647.367-4.142 2.034-4.142 5.097 0 3.578 2.23 5.661 6.47 5.661h.833c4.018 0 6.175-1.986 6.175-5.613 0-3.234-1.715-4.876-4.41-5.218v-2.697c4.165.515 6.787 3.064 6.787 8.014m-9.875-18.031 3.97 4.043h5.513v2.5H.319v-2.5h9.043l-9.043-9.067v-3.21l6.396 6.421 11.027-6.887v2.892zm9.483-24.453v13.209H.319V82.129H2.5v10.366h5.39v-8.774h2.182v8.774h5.44V81.736zM5.686 66.988h-.05c-2.083 0-3.137 1.323-3.137 4.362v4.68h6.42v-4.606c.025-2.72-.955-4.436-3.234-4.436ZM11.1 76.03h6.641v2.5H.319V71.3c0-4.851 1.887-6.861 5.171-6.861 2.45 0 3.847 1.177 4.46 3.382.514-2.083 1.79-2.99 4.46-2.99h2.402c.416 0 .735-.147.931-.392v2.696c-.172.196-.564.319-.956.319h-2.328c-2.524 0-3.357 1.054-3.357 3.994v4.582Zm6.642-17.859v2.401H.319v-2.377l7.817-6.127-7.793-6.174V43.54h17.399v2.427H4.043l.074.049 7.303 5.906v.416l-7.303 5.833zM3.088 32.42l8.013 3.112v-6.347L3.088 32.42Zm10.146-4.117v8.062l4.508 1.765v2.598L.319 33.718v-2.621l17.423-7.205v2.597l-4.508 1.814Zm4.508-9.627v2.401H.319v-2.45l12.669-9.116 1.176-.661-.539.049H.319V6.496h17.423V8.8L4.803 18.137l-1.054.588.417-.049zm23 131.271h-2.107v-3.161H25.352v3.161h-2.033v-8.503h2.033v3.16h13.283v-3.16h2.107zm0-13.794v2.156H23.319v-2.156l12.595-7.939 1.544-.711-1.176.097H23.319v-2.156h17.423v2.059l-12.841 8.111-1.421.637 1.054-.098zm-5.562-13.621h-.393v-2.401h.393c2.475-.05 3.872-1.35 3.872-4.29 0-2.646-1.397-3.822-2.99-3.822h-.172c-2.23-.024-2.671 2.205-3.21 4.558-.612 2.622-1.323 5.392-4.803 5.392h-.123c-2.524 0-4.705-1.912-4.705-5.71 0-4.043 1.96-6.03 5.122-6.176h.343v2.328h-.343c-2.083.123-3.185 1.323-3.185 3.872 0 2.304 1.249 3.406 2.768 3.406h.099c2.082 0 2.474-2.132 3.038-4.435.638-2.696 1.372-5.49 4.95-5.514h.172c2.793 0 5.072 2.107 5.072 6.126 0 4.73-2.156 6.568-5.905 6.666m-9.827-21.072h15.39v2.304h-15.39v4.729h-2.034V96.535h2.034zm15.389-7.25h-2.107v-3.161H25.352v3.161h-2.033v-8.503h2.033v3.161h13.283v-3.161h2.107zM25.353 76.348h15.39v2.304h-15.39v4.729h-2.034V71.422h2.034zm8.332-7.568H23.319v-2.328h10.268c3.676 0 5.318-1.152 5.318-3.945 0-2.77-1.617-3.897-5.318-3.897H23.319v-2.352h10.366c5.073 0 7.4 2.13 7.4 6.249 0 4.312-2.327 6.273-7.4 6.273m-8.332-22.174h15.39v2.303h-15.39v4.73h-2.034V41.68h2.034zm15.389-19.16v11.419H23.319V27.789h1.985v8.871h5.636v-7.572h1.985v7.572h5.783v-9.214zm-12.669-3.061c-.294-.882-.98-1.42-2.107-1.519.024.123.048.246.048.392 0 .834-.27 1.25-1.421 1.25-1.078 0-1.47-.44-1.47-1.445 0-1.128.539-1.569 2.132-1.569 2.034 0 3.333.882 3.823 2.621l-1.005.27Zm7.107-5.682h-.393v-2.401h.393c2.475-.05 3.872-1.35 3.872-4.29 0-2.646-1.397-3.822-2.99-3.822h-.172c-2.23-.025-2.671 2.205-3.21 4.558-.612 2.622-1.323 5.392-4.803 5.392h-.123c-2.524 0-4.705-1.913-4.705-5.71 0-4.044 1.96-6.03 5.122-6.176h.343v2.328h-.343c-2.083.122-3.185 1.323-3.185 3.872 0 2.303 1.249 3.406 2.768 3.406h.099c2.082 0 2.474-2.133 3.038-4.435.638-2.696 1.372-5.49 4.95-5.514h.172c2.793 0 5.072 2.107 5.072 6.126 0 4.729-2.156 6.567-5.905 6.666" mask="url(#b)"/>
    </g>
  </g>
</svg>